<?xml version="1.0" standalone="no"?>
<!DOCTYPE svg PUBLIC "-//W3C//DTD SVG 20010904//EN"
 "http://www.w3.org/TR/2001/REC-SVG-20010904/DTD/svg10.dtd">
<svg version="1.0" xmlns="http://www.w3.org/2000/svg"
 width="1080.000000pt" height="1920.000000pt" viewBox="0 0 1080.000000 1920.000000"
 preserveAspectRatio="xMidYMid meet">

<g transform="translate(0.000000,1920.000000) scale(0.100000,-0.100000)"
fill="#000000" stroke="none">
<path d="M3900 17458 c-84 -43 -111 -159 -57 -251 24 -40 40 -52 99 -70 9 -3
18 -16 20 -28 2 -12 15 -31 30 -42 21 -16 34 -18 65 -12 l38 8 -35 8 c-55 12
-83 70 -40 84 12 4 33 25 47 46 51 77 33 199 -37 250 -41 31 -80 33 -130 7z
m114 -23 c27 -29 36 -65 36 -145 0 -135 -118 -190 -172 -80 -19 40 -23 135 -7
177 28 74 98 97 143 48z"/>
<path d="M7672 17465 c-55 -24 -66 -92 -21 -134 l22 -20 -32 -26 c-24 -21 -31
-35 -31 -61 0 -108 179 -115 206 -9 9 35 -19 72 -78 105 -67 37 -78 49 -78 86
0 51 59 74 93 36 20 -21 22 -83 5 -100 -6 -6 -9 -14 -6 -18 15 -15 48 38 48
76 0 35 -5 43 -32 60 -39 23 -52 24 -96 5z m69 -188 c25 -16 35 -31 37 -54 6
-59 -56 -93 -106 -57 -17 12 -22 25 -22 63 0 74 29 90 91 48z"/>
<path d="M1938 17453 c21 -15 22 -22 22 -150 0 -126 -1 -135 -20 -140 -40 -11
-18 -23 40 -23 57 0 78 11 45 24 -11 4 -15 21 -15 67 0 73 5 71 77 -27 43 -59
50 -64 85 -64 39 0 52 14 20 22 -10 3 -47 40 -81 82 l-63 76 49 60 c26 34 58
63 71 66 39 11 24 24 -28 24 -49 0 -66 -12 -34 -24 14 -5 13 -9 -4 -33 -11
-16 -36 -46 -56 -68 l-35 -40 -1 73 c0 57 3 72 15 72 8 0 15 5 15 10 0 6 -27
10 -62 9 -60 0 -62 -1 -40 -16z"/>
<path d="M5795 17368 c-66 -183 -71 -193 -93 -203 -37 -16 -25 -25 33 -25 54
0 74 13 35 23 -22 6 -26 31 -10 71 9 24 15 26 64 26 l54 0 16 -46 c15 -44 15
-46 -4 -51 -40 -11 -18 -23 40 -23 33 0 60 4 60 10 0 6 -7 10 -15 10 -19 0
-33 30 -86 182 -24 71 -47 128 -50 128 -4 0 -23 -46 -44 -102z m51 -20 c9 -29
19 -59 22 -65 3 -9 -9 -13 -42 -13 -25 0 -46 4 -46 9 0 7 14 52 35 109 8 21
13 14 31 -40z"/>
<path d="M6319 16501 c-13 -16 -58 -66 -99 -111 -41 -46 -85 -94 -97 -108
l-22 -25 37 -43 c102 -118 198 -223 204 -223 3 -1 60 58 126 131 l120 132 -25
31 c-14 16 -61 68 -104 115 -42 47 -86 95 -97 107 l-19 23 -24 -29z"/>
<path d="M4374 16443 c-38 -42 -90 -100 -116 -127 -26 -28 -48 -55 -48 -59 0
-8 232 -267 240 -267 8 0 240 258 240 267 0 4 -22 31 -48 59 -26 27 -78 85
-116 127 -38 42 -72 77 -76 77 -4 0 -38 -35 -76 -77z"/>
<path d="M2505 16473 c14 -21 25 -50 25 -66 0 -27 0 -27 -25 -11 -33 22 -94
21 -127 0 -49 -32 -73 -118 -47 -169 20 -38 51 -66 80 -72 25 -6 29 -11 29
-40 0 -44 40 -91 89 -106 54 -16 107 10 132 65 10 23 19 48 19 56 0 8 17 23
38 32 21 10 45 31 55 47 20 34 22 105 4 140 -30 60 -115 83 -170 46 -27 -17
-27 -17 -27 7 0 14 11 42 25 62 14 20 25 39 25 41 0 3 -34 5 -75 5 l-76 0 26
-37z"/>
<path d="M8179 16456 c-173 -142 -233 -263 -181 -366 33 -66 117 -99 175 -69
12 6 34 23 48 36 22 20 29 22 35 11 36 -58 123 -75 180 -36 39 27 74 93 74
140 0 79 -88 199 -226 305 l-41 32 -64 -53z"/>
<path d="M4875 15490 c-4 -6 6 -10 23 -10 51 0 88 -71 43 -83 -11 -2 -31 -23
-46 -46 -23 -34 -27 -52 -27 -105 0 -105 51 -166 139 -166 100 0 167 116 129
226 -20 59 -38 80 -93 104 -24 10 -43 26 -43 34 0 30 -38 56 -79 56 -22 0 -43
-4 -46 -10z m170 -96 c50 -20 74 -172 37 -244 -54 -108 -161 -62 -170 74 -8
129 48 202 133 170z"/>
<path d="M8784 15406 c-67 -30 -82 -90 -34 -138 l30 -30 -25 -30 c-32 -37 -32
-68 0 -102 35 -38 96 -37 136 3 16 16 29 37 29 46 0 22 -27 72 -41 77 -7 2 2
17 20 35 50 50 39 112 -24 139 -42 17 -51 17 -91 0z m71 -12 c8 -4 23 -20 31
-36 12 -23 13 -36 4 -63 -13 -39 -30 -48 -65 -35 -63 24 -87 94 -43 124 24 17
46 20 73 10z m-8 -190 c37 -28 44 -66 16 -96 -51 -57 -122 30 -83 103 14 25
26 24 67 -7z"/>
<path d="M2960 15401 c0 -5 11 -12 24 -15 14 -3 48 -37 81 -81 l57 -74 -48
-61 c-27 -33 -59 -63 -71 -66 -42 -11 -24 -24 32 -24 30 0 55 5 55 10 0 6 -7
10 -15 10 -25 0 -17 25 25 78 60 75 70 75 70 -4 0 -57 -3 -67 -20 -71 -40 -11
-18 -23 40 -23 58 0 80 12 40 23 -19 5 -20 14 -20 142 0 128 1 137 20 142 40
11 18 23 -40 23 -58 0 -80 -12 -40 -23 17 -4 20 -14 20 -66 0 -34 -4 -61 -9
-61 -6 0 -34 34 -63 74 -51 73 -54 75 -95 75 -24 1 -43 -3 -43 -8z"/>
<path d="M6760 15400 c0 -5 7 -10 15 -10 19 0 30 -22 82 -169 24 -69 47 -129
52 -134 4 -4 25 39 45 95 21 57 45 123 54 147 8 23 24 48 34 54 30 19 21 27
-32 27 -27 0 -50 -4 -50 -10 0 -5 9 -10 20 -10 15 0 20 -7 20 -26 0 -50 -16
-64 -74 -64 -53 0 -54 1 -69 38 -16 40 -14 52 9 52 8 0 14 5 14 10 0 6 -27 10
-60 10 -33 0 -60 -4 -60 -10z m210 -126 c0 -12 -33 -109 -40 -117 -6 -7 -50
96 -50 117 0 3 20 6 45 6 25 0 45 -3 45 -6z"/>
<path d="M470 12341 c0 -123 8 -165 38 -187 14 -11 173 -13 795 -14 489 0 785
4 797 10 29 16 40 66 40 191 l0 119 -835 0 -835 0 0 -119z"/>
<path d="M2115 10110 c-98 -48 -138 -209 -71 -287 19 -22 33 -28 66 -28 79 0
125 88 86 164 -22 41 -59 54 -103 36 -19 -8 -37 -15 -39 -15 -1 0 1 15 7 33 8
30 51 77 95 104 31 19 2 15 -41 -7z m39 -152 c9 -12 16 -41 16 -63 0 -53 -23
-85 -60 -85 -35 0 -49 21 -57 90 -7 60 6 80 53 80 23 0 38 -7 48 -22z"/>
<path d="M7473 9951 c-40 -55 -73 -106 -73 -115 0 -12 15 -16 68 -18 l67 -3 3
-52 c2 -38 7 -53 18 -53 10 0 14 14 14 55 0 48 2 55 20 55 11 0 20 7 20 15 0
8 -9 15 -20 15 -19 0 -20 7 -20 100 0 73 -3 100 -12 100 -7 0 -46 -45 -85 -99z
m67 -26 l0 -75 -60 0 c-48 0 -59 3 -53 13 22 37 99 136 106 137 4 0 7 -34 7
-75z"/>
<path d="M5285 9644 c-175 -35 -339 -136 -440 -273 -42 -58 -98 -171 -116
-236 -20 -72 -18 -324 3 -390 63 -194 193 -351 361 -434 115 -57 191 -74 322
-75 131 -1 203 16 325 76 69 34 102 58 176 132 146 146 206 290 208 501 1 131
-16 203 -76 325 -33 67 -58 101 -127 170 -108 108 -200 161 -337 195 -111 28
-193 30 -299 9z m43 -701 l2 -353 -135 0 -135 0 0 355 0 356 133 -3 132 -3 3
-352z m442 -3 l0 -350 -130 0 -130 0 0 350 0 350 130 0 130 0 0 -350z"/>
<path d="M2605 9113 c-54 -59 -110 -120 -123 -135 l-25 -27 123 -135 122 -136
58 62 c31 35 87 96 123 137 l66 74 -106 116 c-58 64 -113 124 -123 134 -16 17
-21 13 -115 -90z"/>
<path d="M8005 9113 c-54 -59 -110 -120 -123 -135 l-25 -27 123 -135 122 -136
58 62 c31 35 87 96 123 137 l66 74 -106 116 c-58 64 -113 124 -123 134 -16 17
-21 13 -115 -90z"/>
<path d="M8570 8095 c0 -48 -2 -55 -20 -55 -11 0 -20 -4 -20 -10 0 -5 9 -10
20 -10 19 0 20 -7 20 -106 0 -87 3 -105 15 -102 20 4 155 187 155 210 0 16 -9
18 -65 18 l-65 0 0 55 c0 48 -2 55 -20 55 -18 0 -20 -7 -20 -55z m150 -86 c0
-9 -70 -108 -102 -143 -4 -6 -8 27 -8 72 l0 82 55 0 c33 0 55 -4 55 -11z"/>
<path d="M3190 8057 c-58 -29 -74 -125 -27 -174 23 -25 84 -32 105 -11 23 23
25 -3 4 -48 -17 -35 -32 -50 -62 -62 -48 -20 -53 -34 -7 -21 77 22 127 96 127
187 0 110 -62 168 -140 129z m79 -23 c24 -30 29 -122 9 -142 -14 -14 -57 -16
-76 -4 -19 12 -33 72 -26 110 6 31 36 62 60 62 7 0 22 -12 33 -26z"/>
<path d="M8698 5693 c-33 -38 -38 -64 -38 -182 l0 -121 835 0 835 0 0 115 c0
124 -13 175 -48 194 -14 8 -259 11 -795 11 -725 0 -775 -1 -789 -17z"/>
<path d="M7619 2577 c-45 -30 -69 -80 -69 -145 0 -89 43 -155 110 -169 19 -3
29 -14 36 -36 11 -40 51 -60 99 -51 45 8 46 24 1 24 -35 0 -49 11 -60 45 -4
15 2 24 24 37 64 36 92 163 51 238 -40 76 -126 102 -192 57z m138 -36 c33 -49
33 -173 0 -222 -29 -44 -86 -53 -123 -18 -51 48 -52 203 -1 257 17 18 30 22
61 20 33 -2 44 -9 63 -37z"/>
<path d="M1933 2421 c-40 -55 -73 -106 -73 -115 0 -13 12 -16 65 -16 l65 0 0
-55 c0 -48 2 -55 20 -55 18 0 20 7 20 55 0 48 2 55 20 55 11 0 20 5 20 10 0 6
-9 10 -20 10 -19 0 -20 7 -20 105 0 77 -3 105 -12 105 -7 0 -46 -45 -85 -99z
m57 -31 l0 -80 -56 0 c-45 0 -55 3 -50 15 5 14 98 144 104 145 1 0 2 -36 2
-80z"/>
<path d="M5725 2511 c-3 -5 -20 -13 -38 -17 l-32 -8 30 -5 c30 -6 30 -6 33
-83 3 -86 -7 -114 -40 -121 -13 -2 11 -5 52 -5 72 -1 74 -1 48 14 -28 15 -28
15 -28 124 0 99 -7 129 -25 101z"/>
<path d="M5903 2510 c-42 -17 -66 -94 -51 -164 12 -55 35 -77 91 -83 39 -5 48
-1 78 25 33 29 34 33 34 102 0 68 -2 73 -33 101 -34 30 -75 37 -119 19z m71
-11 c32 -15 50 -67 44 -130 -6 -62 -31 -91 -72 -87 -43 4 -58 37 -54 122 3 57
8 71 27 87 27 22 24 22 55 8z"/>
<path d="M3786 2464 c-3 -26 -6 -62 -6 -82 0 -29 2 -32 14 -23 8 7 32 11 52 9
34 -3 40 -7 52 -39 20 -52 2 -112 -37 -129 -37 -15 -75 2 -66 29 8 26 -18 46
-35 26 -10 -12 -9 -19 3 -39 18 -27 68 -40 111 -28 69 19 96 123 46 177 -23
25 -30 27 -78 22 -45 -5 -53 -3 -48 9 3 9 6 31 6 50 l0 34 70 0 c56 0 70 3 70
15 0 12 -15 15 -74 15 l-73 0 -7 -46z"/>
<path d="M6249 1588 c-50 -57 -100 -116 -110 -133 -23 -37 -25 -105 -4 -146
31 -59 115 -87 162 -54 12 8 24 12 26 8 10 -16 -6 -63 -29 -88 -13 -14 -24
-28 -24 -31 0 -2 34 -4 75 -4 41 0 75 2 75 5 0 3 -9 18 -20 33 -11 15 -23 42
-26 61 l-7 33 31 -16 c17 -9 44 -16 59 -16 91 0 153 121 106 207 -19 33 -203
242 -215 243 -3 0 -48 -46 -99 -102z"/>
<path d="M2385 1656 c-38 -17 -60 -41 -80 -89 -22 -52 -19 -84 14 -152 33 -68
67 -106 164 -188 l68 -58 30 18 c17 10 66 52 108 93 89 86 131 160 131 228 0
138 -140 211 -229 120 l-31 -32 -27 26 c-49 47 -95 57 -148 34z"/>
<path d="M4295 1663 c-89 -23 -132 -148 -86 -248 23 -51 95 -130 176 -195 l64
-51 53 39 c66 49 162 152 187 200 40 79 35 152 -15 211 -50 60 -128 63 -189 9
l-34 -29 -28 26 c-43 41 -76 51 -128 38z"/>
<path d="M8165 1637 c-22 -22 -35 -47 -40 -75 -5 -32 -11 -42 -26 -42 -10 0
-33 -13 -50 -28 -26 -23 -32 -38 -37 -82 -11 -115 84 -186 176 -130 l32 20 0
-23 c0 -12 -11 -41 -25 -64 l-24 -43 74 0 74 0 -24 36 c-14 20 -25 50 -25 67
0 29 1 30 19 13 25 -23 89 -30 121 -14 13 7 35 29 48 48 45 66 10 180 -61 198
-26 7 -33 14 -38 43 -12 72 -54 109 -125 109 -27 0 -44 -8 -69 -33z"/>
<path d="M8618 623 c-30 -7 -20 -23 13 -23 60 0 77 -53 28 -89 -39 -29 -59
-76 -59 -141 0 -98 47 -160 127 -167 62 -5 107 22 133 80 48 105 3 229 -91
252 -17 4 -29 17 -37 39 -17 45 -59 64 -114 49z m186 -136 c29 -40 35 -167 9
-217 -35 -68 -109 -74 -145 -12 -37 64 -30 192 13 238 33 35 93 31 123 -9z"/>
<path d="M3030 565 c0 -48 -2 -55 -20 -55 -11 0 -20 -4 -20 -9 0 -5 9 -11 20
-14 18 -5 20 -14 20 -106 0 -79 3 -101 14 -101 17 0 156 189 156 212 0 15 -10
18 -65 18 l-65 0 0 55 c0 48 -2 55 -20 55 -18 0 -20 -7 -20 -55z m150 -85 c0
-6 -24 -42 -52 -81 l-53 -70 -3 67 c-2 37 -1 73 2 81 6 16 106 19 106 3z"/>
<path d="M4962 605 c-65 -29 -80 -132 -24 -176 22 -17 36 -20 72 -16 l45 5 -3
-49 -4 -49 -69 0 c-55 0 -69 -3 -69 -15 0 -12 15 -15 74 -15 l73 0 7 53 c10
84 8 113 -6 99 -7 -7 -29 -12 -50 -12 -34 0 -40 4 -54 34 -33 68 4 140 68 134
28 -3 33 -6 30 -27 -2 -22 11 -40 31 -41 12 0 8 57 -5 68 -23 19 -82 22 -116
7z"/>
<path d="M6628 523 c-14 -9 -31 -27 -37 -40 -14 -31 -14 -118 0 -146 39 -76
149 -76 188 0 15 29 14 115 -1 148 -23 51 -98 70 -150 38z m108 -38 c29 -71
10 -175 -36 -190 -63 -20 -104 98 -66 190 13 31 19 35 51 35 32 0 38 -4 51
-35z"/>
<path d="M6853 518 c35 -13 41 -38 35 -149 -4 -69 -3 -89 8 -89 7 0 16 5 19
10 3 6 17 10 31 10 13 0 24 5 24 10 0 6 -11 10 -25 10 l-26 0 3 92 c3 87 4 93
28 105 22 11 17 13 -50 12 -62 0 -70 -2 -47 -11z"/>
</g>
</svg>
